<svg width="50" height="30" xmlns="http://www.w3.org/2000/svg">
 <!-- Created with Method Draw - http://github.com/duopixel/Method-Draw/ -->
 <g>
  <title>background</title>
  <rect fill="none" id="canvas_background" height="32" width="52" y="-1" x="-1"/>
  <g display="none" overflow="visible" y="0" x="0" height="100%" width="100%" id="canvasGrid">
   <rect fill="url(#gridpattern)" stroke-width="0" y="0" x="0" height="100%" width="100%"/>
  </g>
 </g>
 <g>
  <title>Layer 1</title>
  <path stroke-width="0" stroke="#f9f9f9" id="svg_6" d="m23.813164,10.086237c0,0 1.071313,-4.416322 0,-5.912334c-1.072577,-1.496012 -1.500341,-2.492521 -3.85875,-3.205924s-1.499078,-0.571227 -3.213939,-0.498255c-1.714849,0.071724 -3.144533,0.996509 -3.144533,1.494764c0,0 -1.071313,0.071712 -1.499078,0.499502c-0.429028,0.42779 -1.143244,2.420797 -1.143244,2.920311s0.357108,3.847616 0.714216,4.559759l-0.425249,0.142177c-0.357096,4.130709 1.428421,4.630212 1.428421,4.630212c0.642285,3.847615 1.285821,2.209427 1.285821,3.205924s-0.643536,0.641691 -0.643536,0.641691s-0.570365,1.566476 -1.998774,2.136443c-1.428421,0.568707 -9.357902,3.631194 -10.002702,4.272886c-0.644812,0.642939 -0.571628,3.633714 -0.571628,3.633714l34.003138,0c0,0 0.074447,-2.990775 -0.570353,-3.633714c-0.646076,-0.642952 -8.575557,-3.704179 -10.003966,-4.272886c-1.428421,-0.569967 -1.998773,-2.136443 -1.998773,-2.136443s-0.643549,0.354818 -0.643549,-0.641691s0.643549,0.641691 1.287085,-3.205924c0,0 1.784266,-0.499503 1.428421,-4.630212l-0.429028,0z" fill="#191919"/>
  <path id="svg_2" d="m21.523538,15.525622z" stroke="#f9f9f9" fill="#000"/>
  <path id="svg_3" d="m29.196614,17.365317c-0.00566,-0.002265 -0.00792,-0.00849 -0.00792,-0.00849s-0.00255,0.00141 -0.00255,-0.00255s0.00255,0.00255 0.0051,-0.01274c0,0 0.00707,-0.001985 0.00566,-0.0184l-0.0017,0c0,0 0.004245,-0.01755 0,-0.023495c-0.00425,-0.005945 -0.005945,-0.009905 -0.01529,-0.01274s-0.00594,-0.00227 -0.012735,-0.00198c-0.006795,0.000285 -0.01246,0.00396 -0.01246,0.00594c0,0 -0.004245,0.000285 -0.00594,0.001985c-0.0017,0.0017 -0.00453,0.00962 -0.00453,0.011605s0.001415,0.01529 0.00283,0.01812l-0.001685,0.000565c-0.001415,0.016415 0.00566,0.0184 0.00566,0.0184c0.002545,0.01529 0.005095,0.00878 0.005095,0.01274s-0.00255,0.00255 -0.00255,0.00255s-0.00226,0.006225 -0.00792,0.00849c-0.00566,0.00226 -0.03708,0.01443 -0.039635,0.01698c-0.002555,0.002555 -0.002265,0.01444 -0.002265,0.01444l0.134735,0c0,0 0.000295,-0.011885 -0.00226,-0.01444c-0.00256,-0.00255 -0.03398,-0.01472 -0.03964,-0.01698zm-0.06235,-0.00086c-0.000495,-0.0009 -0.00074,-0.00155 -0.00074,-0.00155s-0.00216,0.001195 -0.00216,-0.00216s0.00216,0.00216 0.00432,-0.010795c0,0 0.005995,-0.00168 0.004795,-0.015595l-0.00144,0c0,0 0.000715,-0.002955 0.001185,-0.00667c-0.00002,-0.00154 0.00003,-0.00318 0.000185,-0.00498l0.00019,-0.00213c-0.000105,-0.00246 -0.000535,-0.004695 -0.00156,-0.00613c-0.0036,-0.005035 -0.00504,-0.008395 -0.012955,-0.010795c-0.007915,-0.0024 -0.00504,-0.001925 -0.010795,-0.00168c-0.00576,0.00024 -0.01056,0.003355 -0.01056,0.00504c0,0 -0.0036,0.00024 -0.00504,0.00168c-0.001355,0.001355 -0.003525,0.00731 -0.003785,0.009425l0,0.001405c0.000235,0.003265 0.00129,0.012245 0.002345,0.01436l-0.00143,0.00048c-0.001195,0.013915 0.004795,0.015595 0.004795,0.015595c0.00216,0.012955 0.00432,0.00744 0.00432,0.010795s-0.00216,0.00216 -0.00216,0.00216s-0.001915,0.005285 -0.006715,0.007195c-0.000305,0.00012 -0.000695,0.00028 -0.00116,0.00046l0,0.02617l0.002875,0c-0.000145,-0.00639 0.000385,-0.014635 0.00373,-0.01797c0.00178,-0.001775 0.007615,-0.004695 0.03176,-0.01431zm0.11165,-0.04528c-0.0002,-0.00189 -0.000635,-0.003575 -0.00146,-0.00473c-0.003595,-0.00504 -0.00504,-0.008395 -0.01295,-0.010795c-0.00792,-0.0024 -0.00504,-0.001925 -0.0108,-0.00168c-0.005755,0.00024 -0.010555,0.003355 -0.010555,0.00504c0,0 -0.003595,0.00024 -0.00504,0.00168c-0.001355,0.00136 -0.003545,0.00736 -0.00379,0.009455l0.000165,0l0.0004,0.004565c0.0001,0.001155 0.00011,0.00218 0.000135,0.003225c0.00045,0.00333 0.00105,0.00675 0.00165,0.007945l-0.00143,0.00048c-0.001195,0.013915 0.0048,0.015595 0.0048,0.015595c0.00216,0.012955 0.004315,0.00744 0.004315,0.010795s-0.00216,0.00216 -0.00216,0.00216s-0.000265,0.00071 -0.000815,0.00169c0.02385,0.0095 0.029635,0.0124 0.031395,0.01417c0.00335,0.003335 0.003875,0.011575 0.00373,0.01797l0.0024,0l0,-0.02653c-0.00008,-0.00003 -0.00019,-0.000075 -0.00026,-0.000105c-0.004795,-0.001915 -0.006715,-0.007195 -0.006715,-0.007195s-0.002165,0.001195 -0.002165,-0.00216s0.002165,0.00216 0.00432,-0.010795c0,0 0.00402,-0.001145 0.004815,-0.009205l0,-0.006135c-0.000005,-0.00009 -0.000005,-0.000165 -0.000015,-0.000255l-0.001445,0c0,0 0.001075,-0.00445 0.00146,-0.009305l0,-0.00588l0.000015,0z" stroke="#f9f9f9" fill="#000"/>
  <path stroke-width="0" stroke="#f9f9f9" id="svg_5" d="m37.81308,10.086237c0,0 1.071313,-4.416322 0,-5.912334c-1.072576,-1.496012 -1.500341,-2.492521 -3.85875,-3.205924s-1.499077,-0.571227 -3.213938,-0.498255c-1.714849,0.071724 -3.144534,0.996509 -3.144534,1.494764c0,0 -1.071313,0.071712 -1.499077,0.499503c-0.429028,0.42779 -1.143245,2.420796 -1.143245,2.920311s0.357108,3.847616 0.714217,4.559759l-0.425249,0.142177c-0.357096,4.130709 1.428421,4.630212 1.428421,4.630212c0.642285,3.847616 1.285821,2.209427 1.285821,3.205924s-0.643536,0.641691 -0.643536,0.641691s-0.570365,1.566476 -1.998774,2.136443c-1.428421,0.568707 -9.357902,3.631194 -10.002702,4.272886c-0.644812,0.642939 -0.571628,3.633714 -0.571628,3.633714l34.003138,0c0,0 0.074447,-2.990775 -0.570353,-3.633714c-0.646076,-0.642951 -8.575557,-3.704179 -10.003966,-4.272886c-1.428421,-0.569967 -1.998774,-2.136443 -1.998774,-2.136443s-0.643548,0.354818 -0.643548,-0.641691s0.643548,0.641691 1.287084,-3.205924c0,0 1.784266,-0.499503 1.428421,-4.630212l-0.429028,0z" fill="#c46003"/>
 </g>
</svg>